<svg xmlns="http://www.w3.org/2000/svg" xmlns:xlink="http://www.w3.org/1999/xlink" width="500" zoomAndPan="magnify" viewBox="0 0 375 374.999991" height="500" preserveAspectRatio="xMidYMid meet" version="1.2"><g id="40f8ce2d9b"><path style=" stroke:none;fill-rule:nonzero;fill:#005eb8;fill-opacity:1;" d="M 342.28125 132.996094 L 331.773438 132.996094 C 319.632812 132.996094 309.835938 123.457031 309.835938 111.636719 L 309.835938 91.105469 C 309.835938 79.285156 300.035156 69.746094 287.894531 69.746094 L 249.558594 69.746094 C 237.414062 69.746094 227.617188 60.207031 227.617188 48.386719 L 227.617188 21.359375 C 227.617188 9.539062 217.820312 0 205.679688 0 L 169.113281 0 C 156.976562 0 147.175781 9.539062 147.175781 21.359375 L 147.175781 48.386719 C 147.175781 60.207031 137.378906 69.746094 125.238281 69.746094 L 86.898438 69.746094 C 74.757812 69.746094 64.960938 79.285156 64.960938 91.105469 L 64.960938 111.636719 C 64.960938 123.457031 55.164062 132.996094 43.023438 132.996094 L 32.515625 132.996094 C 20.375 132.996094 10.578125 142.535156 10.578125 154.355469 L 10.578125 218.15625 C 10.578125 229.976562 20.375 239.515625 32.515625 239.515625 L 42.878906 239.515625 C 55.019531 239.515625 64.820312 249.054688 64.820312 260.875 L 64.820312 284.515625 C 64.820312 296.335938 74.617188 305.875 86.757812 305.875 C 98.898438 305.875 108.695312 315.414062 108.695312 327.234375 L 108.695312 353.640625 C 108.695312 365.460938 118.492188 375 130.636719 375 L 154.207031 375 C 166.347656 375 176.144531 365.460938 176.144531 353.640625 L 176.144531 316.867188 C 176.144531 310.785156 181.183594 305.945312 187.363281 305.945312 C 193.539062 305.945312 198.578125 310.851562 198.578125 316.867188 L 198.578125 353.640625 C 198.578125 365.460938 208.378906 375 220.519531 375 L 244.089844 375 C 256.230469 375 266.027344 365.460938 266.027344 353.640625 L 266.027344 327.234375 C 266.027344 315.414062 275.828125 305.875 287.964844 305.875 C 300.105469 305.875 309.90625 296.335938 309.90625 284.515625 L 309.90625 260.875 C 309.90625 249.054688 319.703125 239.515625 331.84375 239.515625 L 342.207031 239.515625 C 354.351562 239.515625 364.148438 229.976562 364.148438 218.15625 L 364.148438 154.355469 C 364.148438 142.535156 354.351562 132.996094 342.207031 132.996094 Z M 290.167969 202.394531 C 283.28125 224.515625 267.945312 242.695312 247 253.617188 C 233.9375 260.390625 219.667969 263.847656 205.183594 263.847656 C 196.519531 263.847656 187.789062 262.605469 179.269531 260.046875 C 174.085938 258.523438 171.175781 253.203125 172.738281 248.226562 C 174.296875 243.179688 179.765625 240.347656 184.949219 241.867188 C 202.699219 247.121094 221.441406 245.324219 237.84375 236.820312 C 254.171875 228.316406 266.171875 214.148438 271.566406 196.867188 C 273.128906 191.820312 278.59375 189.054688 283.777344 190.507812 C 288.960938 192.027344 291.871094 197.351562 290.308594 202.394531 Z M 290.167969 202.394531 "/></g></svg>