<svg xmlns="http://www.w3.org/2000/svg" width="215" height="35" viewBox="0 0 215 35" fill="none">
<path d="M32.0533 12.4129H31.0726C29.9394 12.4129 29.025 11.5226 29.025 10.4194V8.50323C29.025 7.4 28.1105 6.50968 26.9774 6.50968H23.3991C22.2659 6.50968 21.3515 5.61935 21.3515 4.51613V1.99355C21.3515 0.890322 20.437 0 19.3039 0H15.8912C14.7581 0 13.8436 0.890322 13.8436 1.99355V4.51613C13.8436 5.61935 12.9292 6.50968 11.796 6.50968H8.21773C7.0846 6.50968 6.17014 7.4 6.17014 8.50323V10.4194C6.17014 11.5226 5.25568 12.4129 4.12255 12.4129H3.14183C2.0087 12.4129 1.09424 13.3032 1.09424 14.4065V20.3613C1.09424 21.4645 2.0087 22.3548 3.14183 22.3548H4.1093C5.24243 22.3548 6.15689 23.2452 6.15689 24.3484V26.5548C6.15689 27.6581 7.07135 28.5484 8.20448 28.5484C9.33761 28.5484 10.2521 29.4387 10.2521 30.5419V33.0065C10.2521 34.1097 11.1665 35 12.2997 35H14.4997C15.6328 35 16.5472 34.1097 16.5472 33.0065V29.5742C16.5472 29.0065 17.0177 28.5548 17.5942 28.5548C18.1707 28.5548 18.6412 29.0129 18.6412 29.5742V33.0065C18.6412 34.1097 19.5557 35 20.6888 35H22.8888C24.0219 35 24.9364 34.1097 24.9364 33.0065V30.5419C24.9364 29.4387 25.8509 28.5484 26.984 28.5484C28.1171 28.5484 29.0316 27.6581 29.0316 26.5548V24.3484C29.0316 23.2452 29.946 22.3548 31.0792 22.3548H32.0466C33.1798 22.3548 34.0942 21.4645 34.0942 20.3613V14.4065C34.0942 13.3032 33.1798 12.4129 32.0466 12.4129H32.0533ZM27.1894 18.8903C26.5466 20.9548 25.1153 22.6516 23.1605 23.671C21.9412 24.3032 20.6093 24.6258 19.2575 24.6258C18.4491 24.6258 17.634 24.5097 16.8388 24.271C16.3551 24.129 16.0834 23.6323 16.2292 23.1677C16.375 22.6968 16.8852 22.4323 17.3689 22.5742C19.0256 23.0645 20.775 22.8968 22.3057 22.1032C23.8298 21.3097 24.9497 19.9871 25.4533 18.3742C25.5991 17.9032 26.1093 17.6452 26.593 17.7806C27.0768 17.9226 27.3485 18.4194 27.2027 18.8903H27.1894Z" fill="#005EB8"/>
<path d="M56.3959 12.8823C55.1958 12.8823 54.2732 13.1983 54.2732 13.9916C54.2732 14.6236 54.6861 14.8429 55.6346 15.1009L58.5445 15.8296C61.7124 16.6809 62.6609 18.3319 62.6609 20.544C62.6609 23.7686 60.1316 25.9227 55.7636 25.9227C52.8537 25.9227 50.5439 25.1294 49.2406 24.4974L50.2213 20.3505C51.7375 21.1438 53.7054 21.8983 55.383 21.8983C56.7121 21.8983 57.4411 21.6468 57.4411 20.9181C57.4411 20.3828 56.8089 20.0668 55.7959 19.8088L53.0731 19.08C50.3504 18.319 49.0212 16.8034 49.0212 14.3011C49.0212 11.012 51.8988 8.7677 56.525 8.7677C58.7057 8.7677 61.3962 9.36748 62.6996 9.96726L61.3382 14.2044C59.7897 13.3789 57.9509 12.8759 56.4024 12.8759L56.3959 12.8823Z" fill="#003466"/>
<path d="M64.9448 17.3452C64.9448 12.3148 68.7128 8.61292 73.8357 8.61292C78.9587 8.61292 82.7331 12.3148 82.7331 17.3452C82.7331 22.3756 78.9651 26.0774 73.8357 26.0774C68.7064 26.0774 64.9448 22.3756 64.9448 17.3452ZM77.636 17.3452C77.636 15.1653 76.0875 13.4563 73.8357 13.4563C71.584 13.4563 70.0677 15.1653 70.0677 17.3452C70.0677 19.525 71.584 21.2341 73.8357 21.2341C76.0875 21.2341 77.636 19.525 77.636 17.3452Z" fill="#003466"/>
<path d="M91.2758 10.696C92.4759 9.49648 94.1534 8.73547 96.2761 8.73547C98.9021 8.73547 100.58 9.65126 101.438 11.5538C102.612 9.90923 104.541 8.76772 107.135 8.76772C111.406 8.76772 113.148 12.0246 113.148 16.0747V19.9378C113.148 20.7633 113.31 21.4534 114.097 21.4534C114.574 21.4534 115.174 21.2663 115.71 21.0084L115.929 25.2133C115.071 25.5615 113.458 25.9098 111.942 25.9098C109.348 25.9098 107.825 24.6135 107.825 21.1954V16.9582C107.825 14.8365 106.845 13.6691 105.038 13.6691C103.644 13.6691 102.696 14.5204 102.251 15.4427V25.6002H96.9342V16.9325C96.9342 14.8429 96.0181 13.6756 94.2115 13.6756C92.6953 13.6756 91.7404 14.5591 91.2694 15.5072V25.6002H85.9529V9.05149H91.2694V10.696H91.2758Z" fill="#003466"/>
<path d="M124.665 9.05144H130.394V13.1661H124.665V18.7317C124.665 20.6278 125.362 21.3243 126.594 21.3243C127.827 21.3243 128.969 20.7246 129.73 20.1828L131.343 24.2329C129.698 25.2455 127.51 25.9097 124.884 25.9097C121.465 25.9097 119.349 23.8202 119.349 19.8346V13.1596H116.529V9.04499H119.503L120.168 4.84009H124.665V9.04499V9.05144Z" fill="#003466"/>
<path d="M132.865 17.3452C132.865 12.3148 136.633 8.61292 141.756 8.61292C146.879 8.61292 150.654 12.3148 150.654 17.3452C150.654 22.3756 146.886 26.0774 141.756 26.0774C136.627 26.0774 132.865 22.3756 132.865 17.3452ZM145.557 17.3452C145.557 15.1653 144.008 13.4563 141.756 13.4563C139.505 13.4563 137.988 15.1653 137.988 17.3452C137.988 19.525 139.505 21.2341 141.756 21.2341C144.008 21.2341 145.557 19.525 145.557 17.3452Z" fill="#003466"/>
<path d="M173.313 25.2198C172.488 25.568 170.907 25.9163 169.358 25.9163C167.526 25.9163 166.19 25.2842 165.59 23.6719C164.545 25.0005 162.932 25.9163 160.493 25.9163C155.996 25.9163 152.867 22.3112 152.867 17.313C152.867 12.3148 156.003 8.76776 160.493 8.76776C162.487 8.76776 164.1 9.46427 165.21 10.4768V3.13757H170.526V19.9378C170.526 20.7891 170.713 21.4534 171.539 21.4534C171.984 21.4534 172.52 21.2664 173.12 21.0084L173.307 25.2133L173.313 25.2198ZM165.21 20.1249V14.5914C164.384 13.8304 163.216 13.3919 162.042 13.3919C159.764 13.3919 158.274 14.9074 158.274 17.313C158.274 19.7186 159.732 21.2986 162.042 21.2986C163.274 21.2986 164.513 20.7311 165.21 20.1249Z" fill="#003466"/>
<path d="M193.702 21.4533C194.334 21.4533 194.812 21.2663 195.315 21.0083L195.502 25.2132C194.618 25.5615 193.128 25.9097 191.547 25.9097C189.65 25.9097 188.347 25.181 187.779 23.5364C186.669 24.865 184.927 25.8775 182.714 25.8775C178.185 25.8775 175.088 22.3369 175.088 17.3645C175.088 12.3921 178.191 8.76123 182.714 8.76123C184.772 8.76123 186.353 9.39326 187.398 10.5025V9.045H192.715V19.9313C192.715 20.7568 192.902 21.4469 193.695 21.4469L193.702 21.4533ZM184.237 21.2921C185.404 21.2921 186.579 20.8149 187.405 20.0925V14.5849C186.74 13.9206 185.475 13.3853 184.237 13.3853C181.927 13.3853 180.501 14.9331 180.501 17.371C180.501 19.8088 181.959 21.2921 184.237 21.2921Z" fill="#003466"/>
<path d="M215 9.05151L208.419 25.3745C206.645 29.8696 204.87 31.8625 200.947 31.8625C199.489 31.8625 198.005 31.3272 197.147 30.7532L197.909 26.7031C198.702 27.1158 199.773 27.5608 200.851 27.5608C202.18 27.5608 202.748 26.8966 203.29 25.7228L203.573 25.0263L196.199 9.05151H202.083L205.851 19.8088L209.651 9.05151H215Z" fill="#003466"/>
</svg>