<svg xmlns="http://www.w3.org/2000/svg" xmlns:xlink="http://www.w3.org/1999/xlink" width="500" zoomAndPan="magnify" viewBox="0 0 375 374.999991" height="500" preserveAspectRatio="xMidYMid meet" version="1.2"><defs><clipPath id="37b5fa47e5"><path d="M 31 22.570312 L 343 22.570312 L 343 352.570312 L 31 352.570312 Z M 31 22.570312 "/></clipPath><clipPath id="ada995607f"><path d="M 193.445312 228.039062 L 337.632812 228.039062 L 337.632812 328.34375 L 193.445312 328.34375 Z M 193.445312 228.039062 "/></clipPath><clipPath id="da7d75444d"><path d="M 337.476562 255.035156 L 337.476562 301.347656 C 337.476562 316.257812 325.390625 328.34375 310.480469 328.34375 L 220.441406 328.34375 C 205.53125 328.34375 193.445312 316.257812 193.445312 301.347656 L 193.445312 255.035156 C 193.445312 240.125 205.53125 228.039062 220.441406 228.039062 L 310.480469 228.039062 C 325.390625 228.039062 337.476562 240.125 337.476562 255.035156 Z M 337.476562 255.035156 "/></clipPath></defs><g id="f8cda14f4f"><g clip-rule="nonzero" clip-path="url(#37b5fa47e5)"><path style=" stroke:none;fill-rule:nonzero;fill:#005eb8;fill-opacity:1;" d="M 323.667969 139.605469 L 314.425781 139.605469 C 303.746094 139.605469 295.128906 131.210938 295.128906 120.808594 L 295.128906 102.742188 C 295.128906 92.339844 286.507812 83.945312 275.828125 83.945312 L 242.101562 83.945312 C 231.421875 83.945312 222.804688 75.550781 222.804688 65.148438 L 222.804688 41.367188 C 222.804688 30.964844 214.183594 22.570312 203.503906 22.570312 L 171.339844 22.570312 C 160.660156 22.570312 152.039062 30.964844 152.039062 41.367188 L 152.039062 65.148438 C 152.039062 75.550781 143.421875 83.945312 132.742188 83.945312 L 99.015625 83.945312 C 88.335938 83.945312 79.71875 92.339844 79.71875 102.742188 L 79.71875 120.808594 C 79.71875 131.210938 71.097656 139.605469 60.417969 139.605469 L 51.175781 139.605469 C 40.496094 139.605469 31.875 148 31.875 158.402344 L 31.875 214.546875 C 31.875 224.949219 40.496094 233.34375 51.175781 233.34375 L 60.292969 233.34375 C 70.972656 233.34375 79.59375 241.738281 79.59375 252.140625 L 79.59375 272.945312 C 79.59375 283.347656 88.210938 291.738281 98.890625 291.738281 C 109.570312 291.738281 118.191406 300.132812 118.191406 310.535156 L 118.191406 333.773438 C 118.191406 344.175781 126.808594 352.570312 137.488281 352.570312 L 158.222656 352.570312 C 168.902344 352.570312 177.523438 344.175781 177.523438 333.773438 L 177.523438 301.410156 C 177.523438 296.058594 181.957031 291.800781 187.390625 291.800781 C 192.824219 291.800781 197.257812 296.121094 197.257812 301.410156 L 197.257812 333.773438 C 197.257812 344.175781 205.878906 352.570312 216.558594 352.570312 L 237.292969 352.570312 C 247.972656 352.570312 256.589844 344.175781 256.589844 333.773438 L 256.589844 310.535156 C 256.589844 300.132812 265.210938 291.738281 275.890625 291.738281 C 286.570312 291.738281 295.191406 283.347656 295.191406 272.945312 L 295.191406 252.140625 C 295.191406 241.738281 303.808594 233.34375 314.488281 233.34375 L 323.605469 233.34375 C 334.285156 233.34375 342.90625 224.949219 342.90625 214.546875 L 342.90625 158.402344 C 342.90625 148 334.285156 139.605469 323.605469 139.605469 Z M 277.828125 200.679688 C 271.769531 220.144531 258.277344 236.140625 239.855469 245.753906 C 228.363281 251.714844 215.808594 254.753906 203.066406 254.753906 C 195.449219 254.753906 187.765625 253.660156 180.269531 251.410156 C 175.710938 250.070312 173.152344 245.386719 174.523438 241.007812 C 175.898438 236.566406 180.707031 234.074219 185.265625 235.410156 C 200.882812 240.035156 217.371094 238.453125 231.796875 230.972656 C 246.160156 223.488281 256.71875 211.019531 261.464844 195.8125 C 262.835938 191.371094 267.648438 188.9375 272.207031 190.214844 C 276.765625 191.554688 279.324219 196.238281 277.953125 200.679688 Z M 277.828125 200.679688 "/></g><g clip-rule="nonzero" clip-path="url(#ada995607f)"><g clip-rule="nonzero" clip-path="url(#da7d75444d)"><path style=" stroke:none;fill-rule:nonzero;fill:#ffbc27;fill-opacity:1;" d="M 193.445312 228.039062 L 337.632812 228.039062 L 337.632812 328.34375 L 193.445312 328.34375 Z M 193.445312 228.039062 "/></g></g><g style="fill:#ffffff;fill-opacity:1;"><g transform="translate(222.272275, 304.225922)"><path style="stroke:none" d="M 16.0625 0 L 0 -42.21875 L 9.5 -42.21875 L 18.1875 -17.421875 C 18.75 -15.847656 19.257812 -14.144531 19.71875 -12.3125 C 20.175781 -10.488281 20.492188 -8.953125 20.671875 -7.703125 L 20.984375 -7.703125 C 21.160156 -9.003906 21.5 -10.5625 22 -12.375 C 22.507812 -14.195312 23.03125 -15.878906 23.5625 -17.421875 L 32.265625 -42.21875 L 41.71875 -42.21875 L 25.671875 0 Z M 16.0625 0 "/></g><g transform="translate(263.992897, 304.225922)"><path style="stroke:none" d="M 41.265625 0 L 3.515625 0 L 3.515625 -6.75 L 17.96875 -21.390625 C 20.757812 -24.242188 23.054688 -26.707031 24.859375 -28.78125 C 26.671875 -30.851562 28.015625 -32.816406 28.890625 -34.671875 C 29.765625 -36.523438 30.203125 -38.546875 30.203125 -40.734375 C 30.203125 -43.429688 29.425781 -45.472656 27.875 -46.859375 C 26.320312 -48.242188 24.273438 -48.9375 21.734375 -48.9375 C 19.316406 -48.9375 17.082031 -48.457031 15.03125 -47.5 C 12.988281 -46.550781 10.878906 -45.195312 8.703125 -43.4375 L 3.78125 -49.359375 C 5.332031 -50.671875 6.988281 -51.875 8.75 -52.96875 C 10.519531 -54.0625 12.5 -54.929688 14.6875 -55.578125 C 16.875 -56.234375 19.363281 -56.5625 22.15625 -56.5625 C 25.6875 -56.5625 28.738281 -55.929688 31.3125 -54.671875 C 33.882812 -53.410156 35.863281 -51.660156 37.25 -49.421875 C 38.632812 -47.191406 39.328125 -44.585938 39.328125 -41.609375 C 39.328125 -38.609375 38.726562 -35.835938 37.53125 -33.296875 C 36.332031 -30.753906 34.625 -28.242188 32.40625 -25.765625 C 30.195312 -23.285156 27.570312 -20.597656 24.53125 -17.703125 L 14.875 -8.28125 L 14.875 -7.859375 L 41.265625 -7.859375 Z M 41.265625 0 "/></g></g></g></svg>